<svg width="56" height="56" viewBox="0 0 56 56" fill="none" xmlns="http://www.w3.org/2000/svg">
<circle cx="28" cy="28" r="28" fill="#1AB587" fill-opacity="0.08"/>
<path d="M42.7139 20.6787C41.9009 19.0156 40.7058 17.6068 39.1619 16.4913C36.4252 14.5139 32.5654 13.4688 28 13.4688C23.4346 13.4688 19.5748 14.5139 16.8381 16.4913C15.2942 17.6068 14.0991 19.0156 13.2861 20.6787C12.4327 22.4244 12 24.4566 12 26.7188C12 31.6115 14.0178 35.3545 17.8509 37.6059C17.3207 39.4766 16.6327 40.6103 16.6265 40.6204L15.4401 42.5279L17.6873 42.5312H17.6937C17.7002 42.5312 17.7067 42.5312 17.7137 42.5312C18.4229 42.5312 21.6766 42.3783 24.3221 39.7244C25.4884 39.8867 26.7224 39.9688 28 39.9688C32.5654 39.9688 36.4252 38.9236 39.1619 36.9463C40.7058 35.8307 41.9009 34.4219 42.7139 32.7588C43.5672 31.0131 44 28.9809 44 26.7188C44 24.4566 43.5672 22.4244 42.7139 20.6787ZM37.6978 34.9198C35.3898 36.5873 32.0364 37.4688 28 37.4688C26.6131 37.4688 25.2897 37.3634 24.0666 37.1557L23.3706 37.0375L22.91 37.5725C21.9204 38.7219 20.7779 39.3356 19.808 39.6624C20.0599 38.9829 20.3149 38.1675 20.5208 37.2383L20.7329 36.2808L19.8534 35.8469C16.3011 34.0947 14.5 31.0236 14.5 26.7188C14.5 23.0998 15.7792 20.3406 18.3022 18.5177C20.6101 16.8502 23.9636 15.9688 28 15.9688C32.0364 15.9688 35.3899 16.8501 37.6978 18.5177C40.2208 20.3406 41.5 23.0999 41.5 26.7188C41.5 30.3376 40.2208 33.0969 37.6978 34.9198Z" fill="#1AB587"/>
<g clip-path="url(#clip0_322_392)">
<path d="M27.9844 18.75C26.7844 18.75 25.8117 19.7228 25.8117 20.9227V24.2492H22.4852C21.2853 24.2492 20.3125 25.2219 20.3125 26.4219V26.4219C20.3125 27.6218 21.2853 28.5946 22.4852 28.5946H25.8117V31.9211C25.8117 33.121 26.7844 34.0938 27.9844 34.0938V34.0938C29.1843 34.0938 30.1571 33.121 30.1571 31.9211V28.5946H33.4836C34.6835 28.5946 35.6563 27.6218 35.6563 26.4219V26.4219C35.6563 25.2219 34.6835 24.2492 33.4836 24.2492H30.1571V20.9227C30.1571 19.7228 29.1843 18.75 27.9844 18.75V18.75Z" fill="#1AB587"/>
</g>
<defs>
<clipPath id="clip0_322_392">
<rect width="15.3438" height="15.3438" fill="white" transform="translate(20.3125 18.75)"/>
</clipPath>
</defs>
</svg>
